<svg width="27" height="30" viewBox="0 0 27 30" fill="none" xmlns="http://www.w3.org/2000/svg">
<path d="M26.7 25.9325L24.8104 6.58896C24.7699 6.15951 24.3717 5.83436 23.9061 5.83436H20.019C19.965 2.60736 17.0632 0 13.5 0C9.93677 0 7.03493 2.60736 6.98094 5.83436H3.09383C2.62143 5.83436 2.23002 6.15951 2.18953 6.58896L0.299962 25.9325C0.299962 25.9571 0.293213 25.9816 0.293213 26.0061C0.293213 28.2086 2.51346 30 5.24659 30H21.7533C24.4865 30 26.7067 28.2086 26.7067 26.0061C26.7067 25.9816 26.7067 25.9571 26.7 25.9325ZM13.5 1.65644C16.0576 1.65644 18.1429 3.52147 18.1969 5.83436H8.80303C8.85702 3.52147 10.9423 1.65644 13.5 1.65644ZM21.7533 28.3436H5.24659C3.53248 28.3436 2.14229 27.3129 2.1153 26.0429L3.92389 7.49693H6.9742V10.0123C6.9742 10.4724 7.3791 10.8405 7.88524 10.8405C8.39137 10.8405 8.79628 10.4724 8.79628 10.0123V7.49693H18.1969V10.0123C18.1969 10.4724 18.6018 10.8405 19.1079 10.8405C19.6141 10.8405 20.019 10.4724 20.019 10.0123V7.49693H23.0693L24.8846 26.0429C24.8576 27.3129 23.4607 28.3436 21.7533 28.3436Z" fill="#5F5B5B"/>
</svg>
