<svg width="29" height="30" viewBox="0 0 29 30" fill="none" xmlns="http://www.w3.org/2000/svg">
<path d="M28.7474 28.4701L21.7 21.1796C23.5904 18.9313 24.735 15.9978 24.735 12.7916C24.735 5.73393 19.1858 0 12.3698 0C5.54743 0 0.00463867 5.74058 0.00463867 12.7916C0.00463867 19.8426 5.55386 25.5832 12.3698 25.5832C15.4692 25.5832 18.3049 24.3991 20.4783 22.4435L27.5257 29.7339C27.6929 29.9069 27.9179 30 28.1366 30C28.3552 30 28.5802 29.9135 28.7474 29.7339C29.0818 29.388 29.0818 28.816 28.7474 28.4701ZM1.73435 12.7916C1.73435 6.72506 6.50553 1.79601 12.3634 1.79601C18.2277 1.79601 22.9924 6.73171 22.9924 12.7916C22.9924 18.8514 18.2277 23.7938 12.3634 23.7938C6.50553 23.7938 1.73435 18.8581 1.73435 12.7916Z" fill="#5F5B5B"/>
</svg>
