<svg width="27" height="28" viewBox="0 0 27 28" fill="none" xmlns="http://www.w3.org/2000/svg">
<g clip-path="url(#clip0)">
<path d="M18.9566 0.026001H8.04345C3.60827 0.026001 0 3.63427 0 8.06945V18.9826C0 23.4177 3.60827 27.026 8.04345 27.026H18.9566C23.3917 27.026 27 23.4177 27 18.9826V8.06945C27 3.63427 23.3917 0.026001 18.9566 0.026001ZM24.2838 18.9826C24.2838 21.9247 21.8987 24.3098 18.9566 24.3098H8.04345C5.10131 24.3098 2.7162 21.9247 2.7162 18.9826V8.06945C2.7162 5.12727 5.10131 2.7422 8.04345 2.7422H18.9566C21.8987 2.7422 24.2838 5.12727 24.2838 8.06945V18.9826Z" fill="#DEDEDE"/>
<path d="M13.5 6.54272C9.64949 6.54272 6.51685 9.67536 6.51685 13.5258C6.51685 17.3763 9.64949 20.509 13.5 20.509C17.3505 20.509 20.4832 17.3764 20.4832 13.5258C20.4832 9.67531 17.3505 6.54272 13.5 6.54272ZM13.5 17.7928C11.1434 17.7928 9.23304 15.8825 9.23304 13.5259C9.23304 11.1693 11.1435 9.25892 13.5 9.25892C15.8566 9.25892 17.767 11.1693 17.767 13.5259C17.767 15.8824 15.8566 17.7928 13.5 17.7928Z" fill="#DEDEDE"/>
<path d="M20.4968 8.26849C21.4209 8.26849 22.1701 7.51933 22.1701 6.59518C22.1701 5.67104 21.4209 4.92188 20.4968 4.92188C19.5727 4.92188 18.8235 5.67104 18.8235 6.59518C18.8235 7.51933 19.5727 8.26849 20.4968 8.26849Z" fill="#DEDEDE"/>
</g>
<defs>
<clipPath id="clip0">
<rect width="27" height="27" fill="white" transform="translate(0 0.026001)"/>
</clipPath>
</defs>
</svg>
