<svg width="23" height="25" viewBox="0 0 23 25" fill="none" xmlns="http://www.w3.org/2000/svg">
<path d="M13.9712 0.335449H9.02895C4.07424 0.335449 0.043457 4.36623 0.043457 9.32094V12.7555C0.043457 15.1231 1.00323 17.4045 2.65998 19.0788V23.6163C2.65998 24.0628 2.89823 24.4753 3.28468 24.6988C3.47833 24.8106 3.69428 24.8665 3.91023 24.8665C4.1259 24.8665 4.34157 24.8109 4.53465 24.6994L9.66636 21.741H13.9712C18.926 21.741 22.9567 17.7102 22.9567 12.7555V9.32094C22.9567 4.36623 18.926 0.335449 13.9712 0.335449ZM21.0434 12.8961C21.0434 16.6658 17.9591 19.7503 14.1892 19.7503H10.1623L3.84785 23.6163V17.6086C2.67833 16.3776 1.9568 14.7177 1.9568 12.8964V9.18008C1.9568 5.41042 5.04108 2.32614 8.81074 2.32614H14.1892C17.9588 2.32614 21.0434 5.41042 21.0434 9.18008V12.8961Z" fill="#DEDEDE"/>
<path d="M10.1927 5.87457C10.1681 5.85029 10.1472 5.8215 10.1309 5.78875C10.0501 5.62644 10.1162 5.4294 10.2785 5.34839C12.0177 4.48205 14.3197 4.96419 15.8763 6.52073C17.4322 8.0767 17.9147 10.3776 17.0492 12.1162C16.9684 12.2785 16.7714 12.3446 16.6088 12.2639C16.4465 12.1831 16.3804 11.9861 16.4612 11.8238C17.2027 10.3341 16.7711 8.3443 15.4119 6.98481C14.0521 5.62503 12.0614 5.19397 10.5712 5.93639C10.4417 6.00075 10.2898 5.97168 10.1927 5.87457Z" fill="#DEDEDE"/>
<path d="M10.9386 7.31991C10.9124 7.29337 10.8901 7.26232 10.8734 7.22675C10.7964 7.06246 10.8672 6.86712 11.0315 6.79034C12.227 6.23112 13.7358 6.56084 14.7859 7.61095C15.8358 8.66106 16.1661 10.1688 15.6077 11.3634C15.5306 11.5277 15.3353 11.5985 15.171 11.5218C15.007 11.445 14.9361 11.2493 15.0126 11.0853C15.4547 10.1402 15.1769 8.93064 14.3216 8.07531C13.4663 7.21998 12.2561 6.94249 11.3099 7.38512C11.1811 7.44524 11.0335 7.41476 10.9386 7.31991Z" fill="#DEDEDE"/>
<path d="M11.6761 8.76296C11.6442 8.73134 11.6185 8.69238 11.6015 8.6475C11.5372 8.47813 11.6224 8.28843 11.7918 8.22407C12.4224 7.98469 13.1708 8.17072 13.6984 8.69831C14.226 9.22591 14.4126 9.97397 14.1735 10.6038C14.1094 10.7734 13.9197 10.8587 13.7503 10.7943C13.5807 10.7299 13.4954 10.5405 13.5598 10.3709C13.7049 9.98808 13.5739 9.50255 13.234 9.16267C12.8944 8.8228 12.4083 8.69238 12.025 8.83804C11.9002 8.88519 11.7647 8.85159 11.6761 8.76296Z" fill="#DEDEDE"/>
<path d="M9.30594 8.18714L7.02675 5.90794C6.73712 5.6186 6.32809 5.55057 6.1175 5.76087L5.89732 5.98134C4.8235 7.05488 4.62477 8.62016 5.49703 9.68382C6.57961 11.0032 7.78413 12.3402 8.94207 13.4538C10.0557 14.6117 11.3926 15.8162 12.712 16.8988C13.7757 17.7711 15.341 17.5724 16.4145 16.4988L16.635 16.2783C16.8453 16.068 16.7772 15.6587 16.4876 15.3694L14.2084 13.0902C13.6676 12.549 13.3108 12.6239 13.1002 12.8342C13.1002 12.8342 12.8128 13.1263 12.7603 13.1867V13.1859C12.5554 13.3911 12.0362 13.4368 11.5673 13.1433C11.1405 12.8757 10.6987 12.4872 10.3019 12.094C9.90863 11.6971 9.5202 11.2553 9.25259 10.8285C8.95901 10.3596 9.00474 9.84049 9.20996 9.63555H9.20912C9.26953 9.58305 9.56169 9.29568 9.56169 9.29568C9.77228 9.08509 9.8468 8.72828 9.30594 8.18714Z" fill="#DEDEDE"/>
</svg>
