<svg width="27" height="28" viewBox="0 0 27 28" fill="none" xmlns="http://www.w3.org/2000/svg">
<g clip-path="url(#clip0)">
<path d="M12.8453 0.0416154C5.71466 0.381137 0.0875612 6.31961 0.109193 13.4583C0.115779 15.6326 0.640689 17.6849 1.56666 19.4982L0.144966 26.3992C0.0680604 26.7725 0.404741 27.0994 0.775581 27.0116L7.5378 25.4095C9.27512 26.2749 11.2265 26.7747 13.2917 26.8062C20.58 26.9176 26.6571 21.1305 26.8842 13.845C27.1277 6.03542 20.6822 -0.331613 12.8453 0.0416154ZM20.9141 20.831C18.9337 22.8114 16.3007 23.902 13.5 23.902C11.8602 23.902 10.2901 23.5341 8.83345 22.8085L7.89172 22.3394L3.74578 23.3217L4.61848 19.0853L4.15453 18.1767C3.39832 16.6958 3.01489 15.0943 3.01489 13.4169C3.01489 10.6162 4.10552 7.98319 6.08589 6.00275C8.04857 4.04007 10.7246 2.93168 13.5002 2.93168C16.3009 2.93175 18.9338 4.02238 20.9142 6.00269C22.8946 7.98306 23.9852 10.6161 23.9852 13.4167C23.9852 16.1924 22.8768 18.8684 20.9141 20.831Z" fill="#DEDEDE"/>
<path d="M19.9988 16.3209L17.405 15.5761C17.064 15.4782 16.6967 15.575 16.4483 15.8282L15.814 16.4744C15.5465 16.7469 15.1407 16.8345 14.7867 16.6912C13.5597 16.1947 10.9786 13.8998 10.3194 12.7519C10.1293 12.4207 10.1607 12.0068 10.3942 11.7046L10.948 10.9882C11.1649 10.7075 11.2107 10.3305 11.0672 10.006L9.97597 7.53788C9.71458 6.94672 8.95915 6.77463 8.46562 7.19203C7.7417 7.80431 6.88276 8.73473 6.77835 9.7655C6.59425 11.5828 7.37364 13.8737 10.3209 16.6245C13.7258 19.8025 16.4525 20.2223 18.2278 19.7923C19.2347 19.5484 20.0394 18.5706 20.5473 17.77C20.8935 17.2242 20.6201 16.4993 19.9988 16.3209Z" fill="#DEDEDE"/>
</g>
<defs>
<clipPath id="clip0">
<rect width="27" height="27" fill="white" transform="translate(0 0.026001)"/>
</clipPath>
</defs>
</svg>
